<svg width="475" height="140" viewBox="0 0 475 140" fill="none" xmlns="http://www.w3.org/2000/svg">
<g clip-path="url(#clip0_24_182)">
<path d="M373.086 136.404H326.546V5.11865H373.47C386.676 5.11865 398.044 7.74692 407.574 13.0035C417.104 18.2173 424.433 25.7174 429.562 35.504C434.733 45.2906 437.318 57.0002 437.318 70.633C437.318 84.3086 434.733 96.061 429.562 105.89C424.433 115.72 417.061 123.263 407.446 128.519C397.873 133.776 386.419 136.404 373.086 136.404ZM354.303 112.621H371.932C380.137 112.621 387.039 111.168 392.638 108.262C398.279 105.313 402.51 100.762 405.33 94.608C408.194 88.4113 409.625 80.4196 409.625 70.633C409.625 60.932 408.194 53.0044 405.33 46.8504C402.51 40.6964 398.3 36.1664 392.702 33.2603C387.103 30.3543 380.201 28.9013 371.996 28.9013H354.303V112.621Z" fill="black"/>
<path d="M303.709 5.11865V136.404H275.952V5.11865H303.709Z" fill="black"/>
<path d="M247.81 96.0594C241.919 109.108 234.433 119.091 225.354 126.011C216.313 132.948 206.457 136.915 195.785 137.911C185.17 138.885 174.585 136.99 164.029 132.224C153.396 127.423 144.944 120.699 138.672 112.053C132.401 103.407 128.878 93.3993 128.103 82.0302C127.328 70.6611 129.878 58.4719 135.752 45.4627C141.643 32.4145 149.109 22.4218 158.15 15.4845C167.19 8.54726 177.018 4.59135 187.633 3.61683C198.266 2.60335 208.899 4.49718 219.533 9.29833C230.088 14.0643 238.501 20.7703 244.773 29.4164C251.101 38.0411 254.652 48.038 255.427 59.4071C256.24 70.7938 253.702 83.0112 247.81 96.0594ZM222.162 84.4786C225.978 76.0265 227.93 68.3271 228.019 61.3805C228.147 54.4514 226.609 48.4585 223.406 43.4017C220.203 38.345 215.544 34.4361 209.429 31.675C203.314 28.9139 197.301 28.0041 191.389 28.9456C185.478 29.8871 179.946 32.688 174.794 37.3484C169.681 42.0263 165.216 48.5914 161.4 57.0435C157.584 65.4956 155.612 73.1861 155.484 80.1152C155.396 87.0618 156.953 93.0635 160.156 98.1203C163.359 103.177 168.018 107.086 174.133 109.847C180.248 112.608 186.261 113.518 192.172 112.576C198.084 111.635 203.596 108.825 208.709 104.147C213.861 99.4869 218.345 92.9307 222.162 84.4786Z" fill="black"/>
<path d="M30.8341 5.11865L62.5656 104.865H63.7836L95.5792 5.11865H126.349L81.0917 136.404H45.3216L0 5.11865H30.8341Z" fill="black"/>
<path d="M159 52.5C88.3433 63.1365 28.7054 70.8062 91.3272 75.6525C153.949 80.4988 351.99 79.2325 427.547 79.5932C503.104 79.9539 450.175 81.9799 418.223 85.4295C386.271 88.879 376.901 93.6908 372.96 98.4488C369.019 103.207 370.792 107.765 372.619 112.462" stroke="black" stroke-width="4" stroke-linecap="round"/>
</g>
<defs>
<clipPath id="clip0_24_182">
<rect width="475" height="140" fill="white"/>
</clipPath>
</defs>
</svg>
